<svg xmlns="http://www.w3.org/2000/svg" version="1.1" xmlns:xlink="http://www.w3.org/1999/xlink" xmlns:svgjs="http://svgjs.dev/svgjs" viewBox="0 0 1066 800"><g stroke-width="1" stroke="url(#oooscillate-grad)" fill="none" stroke-linecap="round"><path d="M 0 522 Q 266.5 65 533 400 Q 799.5 735 1066 522" stroke-dasharray="53 56" opacity="1.00"></path><path d="M 0 504 Q 266.5 65 533 400 Q 799.5 735 1066 504" stroke-dasharray="33 23" opacity="0.97"></path><path d="M 0 486 Q 266.5 65 533 400 Q 799.5 735 1066 486" stroke-dasharray="42 44" opacity="0.93"></path><path d="M 0 468 Q 266.5 65 533 400 Q 799.5 735 1066 468" stroke-dasharray="22 19" opacity="0.90"></path><path d="M 0 450 Q 266.5 65 533 400 Q 799.5 735 1066 450" stroke-dasharray="48 53" opacity="0.86"></path><path d="M 0 432 Q 266.5 65 533 400 Q 799.5 735 1066 432" stroke-dasharray="26 10" opacity="0.83"></path><path d="M 0 414 Q 266.5 65 533 400 Q 799.5 735 1066 414" stroke-dasharray="67 10" opacity="0.80"></path><path d="M 0 396 Q 266.5 65 533 400 Q 799.5 735 1066 396" stroke-dasharray="3 46" opacity="0.76"></path><path d="M 0 378 Q 266.5 65 533 400 Q 799.5 735 1066 378" stroke-dasharray="35 8" opacity="0.73"></path><path d="M 0 360 Q 266.5 65 533 400 Q 799.5 735 1066 360" stroke-dasharray="0 67" opacity="0.69"></path><path d="M 0 342 Q 266.5 65 533 400 Q 799.5 735 1066 342" stroke-dasharray="22 24" opacity="0.66"></path><path d="M 0 324 Q 266.5 65 533 400 Q 799.5 735 1066 324" stroke-dasharray="27 0" opacity="0.63"></path><path d="M 0 306 Q 266.5 65 533 400 Q 799.5 735 1066 306" stroke-dasharray="49 42" opacity="0.59"></path><path d="M 0 288 Q 266.5 65 533 400 Q 799.5 735 1066 288" stroke-dasharray="4 52" opacity="0.56"></path><path d="M 0 270 Q 266.5 65 533 400 Q 799.5 735 1066 270" stroke-dasharray="58 55" opacity="0.53"></path><path d="M 0 252 Q 266.5 65 533 400 Q 799.5 735 1066 252" stroke-dasharray="47 48" opacity="0.49"></path><path d="M 0 234 Q 266.5 65 533 400 Q 799.5 735 1066 234" stroke-dasharray="41 42" opacity="0.46"></path><path d="M 0 216 Q 266.5 65 533 400 Q 799.5 735 1066 216" stroke-dasharray="8 28" opacity="0.42"></path><path d="M 0 198 Q 266.5 65 533 400 Q 799.5 735 1066 198" stroke-dasharray="38 19" opacity="0.39"></path><path d="M 0 180 Q 266.5 65 533 400 Q 799.5 735 1066 180" stroke-dasharray="60 37" opacity="0.36"></path><path d="M 0 162 Q 266.5 65 533 400 Q 799.5 735 1066 162" stroke-dasharray="34 25" opacity="0.32"></path><path d="M 0 144 Q 266.5 65 533 400 Q 799.5 735 1066 144" stroke-dasharray="13 65" opacity="0.29"></path><path d="M 0 126 Q 266.5 65 533 400 Q 799.5 735 1066 126" stroke-dasharray="60 11" opacity="0.25"></path><path d="M 0 108 Q 266.5 65 533 400 Q 799.5 735 1066 108" stroke-dasharray="49 23" opacity="0.22"></path><path d="M 0 90 Q 266.5 65 533 400 Q 799.5 735 1066 90" stroke-dasharray="44 13" opacity="0.19"></path><path d="M 0 72 Q 266.5 65 533 400 Q 799.5 735 1066 72" stroke-dasharray="31 10" opacity="0.15"></path><path d="M 0 54 Q 266.5 65 533 400 Q 799.5 735 1066 54" stroke-dasharray="4 16" opacity="0.12"></path><path d="M 0 36 Q 266.5 65 533 400 Q 799.5 735 1066 36" stroke-dasharray="20 50" opacity="0.08"></path></g><defs><linearGradient x1="50%" y1="0%" x2="50%" y2="100%" id="oooscillate-grad"><stop stop-color="#2A9D8F" stop-opacity="1" offset="0%"></stop><stop stop-color="#52489C" stop-opacity="1" offset="100%"></stop></linearGradient></defs></svg>