<svg xmlns="http://www.w3.org/2000/svg" version="1.1" xmlns:xlink="http://www.w3.org/1999/xlink" xmlns:svgjs="http://svgjs.dev/svgjs" viewBox="0 0 1422 800"><defs><linearGradient x1="50%" y1="0%" x2="50%" y2="100%" id="oooscillate-grad"><stop stop-color="hsl(173, 58%, 39%)" stop-opacity="1" offset="0%"></stop><stop stop-color="hsl(247, 37%, 45%)" stop-opacity="1" offset="100%"></stop></linearGradient></defs><g stroke-width="1.5" stroke="url(#oooscillate-grad)" fill="none" stroke-linecap="round"><path d="M 0 759 Q 355.5 -65 711 400 Q 1066.5 865 1422 759" stroke-dasharray="115 29" opacity="1.00"></path><path d="M 0 736 Q 355.5 -65 711 400 Q 1066.5 865 1422 736" stroke-dasharray="15 100" opacity="0.97"></path><path d="M 0 713 Q 355.5 -65 711 400 Q 1066.5 865 1422 713" stroke-dasharray="141 122" opacity="0.94"></path><path d="M 0 690 Q 355.5 -65 711 400 Q 1066.5 865 1422 690" stroke-dasharray="141 146" opacity="0.91"></path><path d="M 0 667 Q 355.5 -65 711 400 Q 1066.5 865 1422 667" stroke-dasharray="49 82" opacity="0.88"></path><path d="M 0 644 Q 355.5 -65 711 400 Q 1066.5 865 1422 644" stroke-dasharray="56 132" opacity="0.85"></path><path d="M 0 621 Q 355.5 -65 711 400 Q 1066.5 865 1422 621" stroke-dasharray="128 29" opacity="0.82"></path><path d="M 0 598 Q 355.5 -65 711 400 Q 1066.5 865 1422 598" stroke-dasharray="101 11" opacity="0.79"></path><path d="M 0 575 Q 355.5 -65 711 400 Q 1066.5 865 1422 575" stroke-dasharray="106 11" opacity="0.76"></path><path d="M 0 552 Q 355.5 -65 711 400 Q 1066.5 865 1422 552" stroke-dasharray="30 42" opacity="0.73"></path><path d="M 0 529 Q 355.5 -65 711 400 Q 1066.5 865 1422 529" stroke-dasharray="77 6" opacity="0.70"></path><path d="M 0 506 Q 355.5 -65 711 400 Q 1066.5 865 1422 506" stroke-dasharray="63 64" opacity="0.67"></path><path d="M 0 483 Q 355.5 -65 711 400 Q 1066.5 865 1422 483" stroke-dasharray="82 106" opacity="0.64"></path><path d="M 0 460 Q 355.5 -65 711 400 Q 1066.5 865 1422 460" stroke-dasharray="64 131" opacity="0.61"></path><path d="M 0 437 Q 355.5 -65 711 400 Q 1066.5 865 1422 437" stroke-dasharray="105 2" opacity="0.58"></path><path d="M 0 414 Q 355.5 -65 711 400 Q 1066.5 865 1422 414" stroke-dasharray="137 38" opacity="0.55"></path><path d="M 0 391 Q 355.5 -65 711 400 Q 1066.5 865 1422 391" stroke-dasharray="70 99" opacity="0.53"></path><path d="M 0 368 Q 355.5 -65 711 400 Q 1066.5 865 1422 368" stroke-dasharray="64 78" opacity="0.50"></path><path d="M 0 345 Q 355.5 -65 711 400 Q 1066.5 865 1422 345" stroke-dasharray="14 146" opacity="0.47"></path><path d="M 0 322 Q 355.5 -65 711 400 Q 1066.5 865 1422 322" stroke-dasharray="55 78" opacity="0.44"></path><path d="M 0 299 Q 355.5 -65 711 400 Q 1066.5 865 1422 299" stroke-dasharray="117 21" opacity="0.41"></path><path d="M 0 276 Q 355.5 -65 711 400 Q 1066.5 865 1422 276" stroke-dasharray="96 56" opacity="0.38"></path><path d="M 0 253 Q 355.5 -65 711 400 Q 1066.5 865 1422 253" stroke-dasharray="62 108" opacity="0.35"></path><path d="M 0 230 Q 355.5 -65 711 400 Q 1066.5 865 1422 230" stroke-dasharray="61 41" opacity="0.32"></path><path d="M 0 207 Q 355.5 -65 711 400 Q 1066.5 865 1422 207" stroke-dasharray="22 69" opacity="0.29"></path><path d="M 0 184 Q 355.5 -65 711 400 Q 1066.5 865 1422 184" stroke-dasharray="60 58" opacity="0.26"></path><path d="M 0 161 Q 355.5 -65 711 400 Q 1066.5 865 1422 161" stroke-dasharray="111 37" opacity="0.23"></path><path d="M 0 138 Q 355.5 -65 711 400 Q 1066.5 865 1422 138" stroke-dasharray="32 34" opacity="0.20"></path><path d="M 0 115 Q 355.5 -65 711 400 Q 1066.5 865 1422 115" stroke-dasharray="5 79" opacity="0.17"></path><path d="M 0 92 Q 355.5 -65 711 400 Q 1066.5 865 1422 92" stroke-dasharray="79 16" opacity="0.14"></path><path d="M 0 69 Q 355.5 -65 711 400 Q 1066.5 865 1422 69" stroke-dasharray="90 102" opacity="0.11"></path><path d="M 0 46 Q 355.5 -65 711 400 Q 1066.5 865 1422 46" stroke-dasharray="42 127" opacity="0.08"></path></g></svg>