<?xml version="1.0" standalone="no"?>
<!DOCTYPE svg PUBLIC "-//W3C//DTD SVG 20010904//EN"
 "http://www.w3.org/TR/2001/REC-SVG-20010904/DTD/svg10.dtd">
<svg version="1.0" xmlns="http://www.w3.org/2000/svg"
 width="700.000000pt" height="700.000000pt" viewBox="0 0 700.000000 700.000000"
 preserveAspectRatio="xMidYMid meet">
<metadata>
Created by potrace 1.14, written by Peter Selinger 2001-2017
</metadata>
<g transform="translate(0.000000,700.000000) scale(0.100000,-0.100000)"
fill="#000000" stroke="none">
<path d="M2438 4959 c-9 -6 -13 -195 -9 -360 l1 -36 421 1 c231 1 423 -2 425
-6 3 -4 5 -570 5 -1257 0 -964 3 -1251 12 -1258 9 -7 345 -10 414 -4 9 1 12
288 12 1257 0 690 2 1258 5 1262 2 4 194 7 425 6 l421 -1 1 36 c6 322 5 361
-16 362 -94 5 -2109 3 -2117 -2z"/>
<path d="M1915 4498 c-28 -11 -63 -26 -80 -33 -16 -7 -257 -106 -535 -220
-278 -113 -518 -212 -535 -220 -32 -14 -155 -64 -530 -218 l-230 -94 -3 -214
-2 -214 277 -114 c153 -62 319 -130 368 -151 50 -21 176 -73 280 -115 105 -43
318 -131 475 -195 313 -130 336 -139 365 -150 11 -4 36 -15 55 -23 79 -35 143
-57 147 -53 4 4 6 326 4 432 -1 22 -7 25 -341 144 -80 28 -167 60 -195 70 -27
10 -115 42 -195 70 -80 28 -167 60 -195 70 -92 35 -550 198 -573 205 -33 10
-24 35 18 51 52 20 896 323 965 346 33 11 74 26 90 33 17 8 75 29 130 48 198
68 280 99 288 107 8 8 13 447 6 455 -2 2 -27 -6 -54 -17z"/>
<path d="M5029 4492 c-4 -164 0 -425 7 -432 5 -4 178 -72 384 -150 433 -164
982 -373 1022 -389 18 -7 26 -15 22 -25 -6 -16 -56 -36 -519 -211 -154 -58
-289 -109 -300 -114 -11 -5 -47 -19 -80 -31 -33 -11 -69 -25 -80 -30 -11 -5
-116 -45 -234 -89 -118 -45 -216 -83 -219 -85 -6 -6 -6 -445 0 -452 5 -5 112
37 578 229 47 19 137 56 200 81 63 26 124 51 135 56 47 21 171 73 320 133 88
36 255 105 370 152 116 48 245 100 288 117 l77 31 0 214 0 213 -32 15 c-18 7
-123 51 -233 96 -110 45 -247 101 -305 125 -607 249 -899 369 -1080 444 -118
49 -239 98 -267 109 l-53 21 -1 -28z"/>
</g>
</svg>
